<?xml version="1.0" encoding="UTF-8"?>
<svg id="Layer_1" xmlns="http://www.w3.org/2000/svg" version="1.1" viewBox="0 0 214.83 200.17">
  <!-- Generator: Adobe Illustrator 29.8.1, SVG Export Plug-In . SVG Version: 2.1.1 Build 2)  -->
  <defs>
    <style>
      .st0 {
        fill: #62734a;
      }
    </style>
  </defs>
  <path class="st0" d="M99.9,134.79c.06.32,1.11,1.94,1.42,2.28l3.1,2.03-21.36-.41,2.47-1.84,1.24-2.87c.06-18.37.58-36.67-.03-54.99-.1-2.94.55-8.53-.08-11-.15-.58-1.24-1.95-1.74-2.36l-3.5-2.04,31.86.39c12.94-.39,26.75,5.8,25.66,20.74-.97,13.35-13.7,18.49-25.33,19.48-.59.05-1.11.02-1.58-.38l-.2.81c.67-.02,1.34.06,1.98.28,13.69,4.86,13.9,15.62,20.14,26.67,9.7,17.19,25.89,30.32,46.7,28.04,3.69-.4,7.2-1.92,10.9-1.84-16.57,8.36-37.62,4.1-51.17-7.99-9.38-8.37-14.67-22.47-21.08-33.12-4.28-7.12-8.06-10.88-16.52-12.7l.02-1.38c8.09,1,18.27.27,23.84-6.35,4.5-5.35,5.97-13.55,3.22-20.06-5.15-12.18-18.4-9.08-29.09-9.94l-.85.44v68.13Z"/>
  <g>
    <path class="st0" d="M137.67,26.23c-3.74-1.62-7.2-3.75-11.09-5.02-20.55-6.69-41.39,1.96-50.48,21.5-4.25,9.13-5.68,19.42-10.61,28.27-9.78,17.56-34.13,22.77-38.65,43.99-5.61,26.32,19.4,49.1,44.88,46.1l1.48,2.51c-1.41.06-3,.36-4.39.4-36.56,1.15-62.08-41.74-32.73-69.07,12.14-11.3,23.68-14.89,30.23-31.89,6.01-15.58,6.92-28.66,22.06-39.08,14.55-10.02,35.84-9.25,49.29,2.31Z"/>
    <path class="st0" d="M138.45,173.34c-2.72,2.92-6.86,5.04-10.55,6.54-22.75,9.27-44.76-1.49-54.34-23.21-5.16-11.71-5.73-25.61-13.48-36.14-5.02-6.82-12.55-10.96-19.09-16.07-.45-.35-3.2-2.44-3.14-2.7l1.36-1.39.46.13c7.23,5.91,15.97,10.2,21.7,17.77,9.85,13.01,9.76,30.54,18.28,44.24,11.69,18.79,33.72,23.06,53.27,13.8,1.9-.9,3.63-2.08,5.53-2.96Z"/>
    <path class="st0" d="M73.2,35.22l-1.3,2.35c-7.91-.84-15.93.27-23.19,3.53-20.01,8.99-30.07,33.42-15.98,52.07.03.29-1.14,1.55-1.53,1.35-.41-.21-2.52-3.34-2.89-3.96-7.16-11.78-5.64-26.79,2.15-37.83,9.44-13.37,26.68-19.97,42.75-17.52Z"/>
    <path class="st0" d="M132.59,152.04c-1.42-.18-2.71-.87-4.14-1.23-1.59-.41-3.34-.71-4.97-.89-14.77-1.6-26.82,7.2-40.26,11.47l-.35-.16-1.08-2.05c12.63-3.71,24.1-12.2,37.82-11.44,4.37.24,9.59,1.5,12.98,4.3Z"/>
    <path class="st0" d="M132,47.14c-.77,1.02-2.23,1.67-3.38,2.18-15.89,7.01-32.26-4.55-46.83-9.71l1.27-2.03c14.18,5.02,28.56,15.23,44.3,11.07,1.59-.42,3.05-1.12,4.65-1.51Z"/>
    <path class="st0" d="M54.75,120.44c.29.04.7.99.29,1.22-2.65,1.37-5.27,2.84-7.94,4.17-3.67,1.83-8.76,4.55-12.52,5.84-.74.25-2.2.86-2.69-.15s.3-1.64,1.06-2.06l21.8-9.03Z"/>
    <path class="st0" d="M36.13,55.2c.13-.13.47-.23.66-.24,1.05-.06,4.78,2.36,5.92,3.04,5.39,3.19,10.62,6.69,15.84,10.14.74,1.95-1.36.6-2.15.2-6.67-3.36-13.11-7.5-19.8-10.88-.73-.32-.97-1.77-.47-2.27Z"/>
    <path class="st0" d="M59.07,128.63l.44.3c.25.82-.78,1.61-1.34,2.12-3.56,3.24-8.76,6.06-12.76,8.92-1.36.97-3.69,3.21-4.95,3.84-1.94.97-2.8-1.3-1.23-2.4l19.84-12.79Z"/>
    <path class="st0" d="M45.8,46.39c.28-.09.57-.08.83.07,4.71,4.49,10.26,8.1,14.95,12.59.45.43,2.29,2.02.77,2.16-.51.05-3.61-2.59-4.32-3.1-2.94-2.11-6.19-4-9.03-6.21-.69-.54-3.9-3.16-4.08-3.74-.21-.68.23-1.59.88-1.78Z"/>
    <path class="st0" d="M115.2,46.36c.84-4.95,1.51-9.94,2.41-14.88.21-1.14,1.22-7.2,1.7-7.68.68-.67,2.15-.08,2.31.82l-5.28,21.41-.28.3-.85.03Z"/>
    <path class="st0" d="M119.94,175.64l-4.33-21.77c-.12-.65.82-1.2,1.26-.66l5.15,20.63c.36,1.53-.63,2.5-2.08,1.79Z"/>
    <path class="st0" d="M52.44,76.39c-.16.16-.43.2-.64.23l-19.76-7.37c-1.23-.59-.5-2.78.72-2.5,6.14,2.97,12.72,5.35,18.83,8.35.52.25,1.57.6.86,1.29Z"/>
    <path class="st0" d="M107.98,43.82l-.99.1c-.21-.22-.32-.5-.37-.8-.88-5.85-.68-12.43-1.39-18.36,0-1.14.95-2.47,2.07-1.46.13.12.68,1.01.68,1.08v19.44Z"/>
    <path class="st0" d="M108.32,155.41c.55.79.06,1.65.05,2.4-.1,5.38,0,11.08-.39,16.41-.05.72.15,1.85-.1,2.44-.37.85-2.08.8-2.24-.09-.18-1-.06-3.75,0-4.88.18-3.12.91-6.26,1.17-9.38.09-1.04,0-6.41.43-6.9h1.09Z"/>
    <path class="st0" d="M63.22,138.2c.04.38.3.75.13,1.14-.11.25-2.14,2.25-2.55,2.74-2.15,2.57-4.14,5.38-6.44,7.82-.4.42-1.69,1.83-2.1,2-.74.31-1.76.19-1.86-.76s2.45-3.62,3.17-4.37c2.78-2.9,6.17-5.33,8.7-8.49l.96-.08Z"/>
    <path class="st0" d="M47,113.98c.9,1.43-2.7,1.75-3.53,1.98-2.88.81-10.19,3.55-12.73,3.25-1.61-.19-1.81-1.77-.21-2.32,4.58-1.57,10.92-1.61,15.67-3.09.19-.03.73.07.8.17Z"/>
    <path class="st0" d="M125.16,153.02c1.95,3.78,5.57,7,7.58,10.68.38.69,1.11,1.98.04,2.5-1.38.68-2.87-1.99-3.48-2.97-1.86-3-3.14-6.37-5.24-9.23-.07-.28.86-1.14,1.09-.99Z"/>
    <path class="st0" d="M130.39,34.08c.53-.1.99.15,1.32.56.12.21.12.44.11.68-.08,1.96-5.68,8.17-6.65,10.36l-.34.26-.64-.07-.37-.43c-.12-.49.78-1.49,1.05-2.01,1.14-2.16,2.11-4.55,3.31-6.65.43-.74,1.34-2.55,2.2-2.7Z"/>
    <path class="st0" d="M98.33,158.9l.77.37.06.64c-1.03,1.84-3.16,11.05-4.54,11.88s-2.11-.47-1.68-1.88c.63-2.1,2.87-6.19,3.94-8.36.21-.42,1.21-2.59,1.46-2.65Z"/>
    <path class="st0" d="M56.94,41.7c1.21-.22,2.33,1.89,3.07,2.71.99,1.08,5.53,5.62,5.68,6.63.06.38-.45.64-.79.6-2.97-2.41-6.09-4.9-8.59-7.84-.48-.68-.31-1.93.62-2.1Z"/>
    <path class="st0" d="M93.23,28.08c.23,0,.46.11.67.21l4.18,10.88c.18.56-.3.94-.78,1.11-.31.05-.37-.23-.49-.43-1.75-2.71-2.8-6.89-4.51-9.75-.34-.84-.13-2.03.94-2.02Z"/>
  </g>
</svg>